<svg xmlns="http://www.w3.org/2000/svg" width="138.426" height="96.258" viewBox="0 0 138.426 96.258">
  <g id="chat" transform="translate(-1058.074 -299.927)">
    <g id="chat-2" data-name="chat" transform="translate(1077 287)">
      <path id="Path_2" data-name="Path 2" d="M119.5,90.677l-15.5-25Z" fill="#d1d1d1"/>
      <path id="Path_4" data-name="Path 4" d="M.938,48.418" fill="none" stroke="#707070" stroke-width="1"/>
    </g>
    <path id="Path_3" data-name="Path 3" d="M1081.046,311.593c5.777-10.163,12.311-16.219,30.248-20.718s25.9-5.387,46.615-1.45,29.419,13.052,35.427,22.168,2.693,17.61,0,23.2-12.431,17.817-12.431,17.817l14.459,21.4-37.456-11.042s-29.212,8.08-53.659-3.315-26.032-26.2-26.032-26.2S1075.269,321.756,1081.046,311.593Z" transform="translate(-6 13)" fill="#d1d1d1"/>
    <path id="Path_5" data-name="Path 5" d="M1163.872,304.152c-4.311-7.1-9.186-11.326-22.568-14.468s-19.322-3.762-34.779-1.013-21.95,9.115-26.432,15.481-2.009,12.3,0,16.2,9.274,12.442,9.274,12.442l-4.037,19.13,21.195-11.9s21.8,5.642,40.035-2.315,19.423-18.293,19.423-18.293S1168.183,311.25,1163.872,304.152Z" transform="translate(-17.085 39.378)" fill="#d1d1d1" stroke="#fff" stroke-width="5"/>
  </g>
</svg>
