<svg width="120" height="91" viewBox="0 0 120 91" fill="none" xmlns="http://www.w3.org/2000/svg">
<path d="M119.5 37C119.5 45.4345 111.002 58.8023 104 65.677C97.7501 71.813 90.8027 73.2234 81 76.5C73.3792 79.0472 67.7418 79 59 79C26.4152 79 0 61.3152 0 39.5C0 17.6848 26.4152 0 59 0C91.5848 0 119.5 15.1848 119.5 37Z" fill="url(#paint0_linear)"/>
<path d="M81 76.5L119.5 90.677L104 65.677C97.7501 71.813 90.8027 73.2234 81 76.5Z" fill="url(#paint1_linear)"/>
<defs>
<linearGradient id="paint0_linear" x1="60" y1="-0.322994" x2="60" y2="78.677" gradientUnits="userSpaceOnUse">
<stop stop-color="#FF8941"/>
<stop offset="0.0001" stop-color="#DD4587"/>
<stop offset="1" stop-color="#FF8941"/>
</linearGradient>
<linearGradient id="paint1_linear" x1="60" y1="-0.322994" x2="60" y2="78.677" gradientUnits="userSpaceOnUse">
<stop stop-color="#FF8941"/>
<stop offset="0.0001" stop-color="#DD4587"/>
<stop offset="1" stop-color="#FF8941"/>
</linearGradient>
</defs>
</svg>
